<svg xmlns="http://www.w3.org/2000/svg" xmlns:xlink="http://www.w3.org/1999/xlink" version="1.1" x="0px" y="0px" viewBox="0 0 137.75 171.98000000000002" enable-background="new 0 0 137.75 137.584" xml:space="preserve"><path d="M69.42,6.537L69.42,6.537c-0.004,0-0.008,0-0.011,0c-0.004,0-0.008,0-0.012,0l0,0C33.834,6.748,5.068,35.639,5.068,71.253  c0,34.438,41.466,67.429,54.919,46.882C70.65,99.309,48.01,93.155,47.714,71.992c-0.174-12.472,9.284-21.877,21.695-22.066  c12.411,0.189,21.868,9.594,21.694,22.066c-0.296,21.163-22.937,27.316-12.272,46.143c13.453,20.547,54.919-12.444,54.919-46.882  C133.75,35.639,104.984,6.748,69.42,6.537z"/><text x="0" y="152.584" fill="#000000" font-size="5px" font-weight="bold" font-family="'Helvetica Neue', Helvetica, Arial-Unicode, Arial, Sans-serif">Created by corpus delicti</text><text x="0" y="157.584" fill="#000000" font-size="5px" font-weight="bold" font-family="'Helvetica Neue', Helvetica, Arial-Unicode, Arial, Sans-serif">from the Noun Project</text></svg>